<svg xmlns="http://www.w3.org/2000/svg" viewBox="0 0 1024 1024" role="img" aria-labelledby="title desc">
  <title id="title">Aegis Vault 7 icon</title>
  <desc id="desc">A dark rounded square with an Aegis shield, vault dial, and stylized seven mark.</desc>
  <defs>
    <linearGradient id="bg" x1="132" y1="92" x2="892" y2="932" gradientUnits="userSpaceOnUse">
      <stop offset="0" stop-color="#1a211d"/>
      <stop offset="0.46" stop-color="#0b100e"/>
      <stop offset="1" stop-color="#121a16"/>
    </linearGradient>
    <linearGradient id="edge" x1="196" y1="152" x2="840" y2="860" gradientUnits="userSpaceOnUse">
      <stop offset="0" stop-color="#dce1ff"/>
      <stop offset="0.52" stop-color="#acc9eb"/>
      <stop offset="1" stop-color="#d1e9cc"/>
    </linearGradient>
    <linearGradient id="shield" x1="268" y1="176" x2="768" y2="836" gradientUnits="userSpaceOnUse">
      <stop offset="0" stop-color="#dce1ff"/>
      <stop offset="0.55" stop-color="#acc9eb"/>
      <stop offset="1" stop-color="#8fe3b0"/>
    </linearGradient>
    <radialGradient id="core" cx="512" cy="500" r="300" gradientUnits="userSpaceOnUse">
      <stop offset="0" stop-color="#dce1ff" stop-opacity="0.28"/>
      <stop offset="0.62" stop-color="#acc9eb" stop-opacity="0.08"/>
      <stop offset="1" stop-color="#0b100e" stop-opacity="0"/>
    </radialGradient>
    <filter id="softShadow" x="-20%" y="-20%" width="140%" height="140%">
      <feDropShadow dx="0" dy="18" stdDeviation="26" flood-color="#000000" flood-opacity="0.45"/>
    </filter>
  </defs>

  <rect width="1024" height="1024" rx="224" fill="url(#bg)"/>
  <rect x="46" y="46" width="932" height="932" rx="188" fill="none" stroke="url(#edge)" stroke-opacity="0.24" stroke-width="28"/>
  <circle cx="512" cy="512" r="360" fill="url(#core)"/>

  <g filter="url(#softShadow)">
    <path
      d="M512 126 782 230v202c0 190-108 352-270 466-162-114-270-276-270-466V230l270-104Z"
      fill="#101713"
      stroke="url(#shield)"
      stroke-width="42"
      stroke-linejoin="round"
    />
    <path
      d="M512 190 724 272v162c0 146-78 274-212 376-134-102-212-230-212-376V272l212-82Z"
      fill="#151d18"
      stroke="#d1e9cc"
      stroke-opacity="0.16"
      stroke-width="18"
      stroke-linejoin="round"
    />
  </g>

  <circle cx="512" cy="502" r="160" fill="#0a0f0d" stroke="#dce1ff" stroke-width="32"/>
  <circle cx="512" cy="502" r="88" fill="#17211b" stroke="#8fe3b0" stroke-width="22"/>
  <circle cx="512" cy="502" r="27" fill="#dce1ff"/>

  <g stroke="#dce1ff" stroke-width="30" stroke-linecap="round">
    <path d="M512 342v58"/>
    <path d="M512 604v58"/>
    <path d="M352 502h58"/>
    <path d="M614 502h58"/>
    <path d="M399 389l41 41"/>
    <path d="M584 574l41 41"/>
    <path d="M625 389l-41 41"/>
    <path d="M440 574l-41 41"/>
  </g>

  <path
    d="M380 718h210l-126 136h86l142-164v-56H380v84Z"
    fill="#d1e9cc"
    stroke="#0b100e"
    stroke-width="18"
    stroke-linejoin="round"
  />
  <path
    d="M380 718h210l-126 136h86l142-164v-56H380v84Z"
    fill="none"
    stroke="#dce1ff"
    stroke-opacity="0.58"
    stroke-width="7"
    stroke-linejoin="round"
  />
</svg>
